<svg width="32" height="32" viewBox="0 0 32 32" fill="none" xmlns="http://www.w3.org/2000/svg">
  <rect width="32" height="32" rx="6" fill="#0EA5E9"/>
  <path d="M16 8C15.4477 8 15 8.44772 15 9C15 9.55228 15.4477 10 16 10C16.5523 10 17 9.55228 17 9C17 8.44772 16.5523 8 16 8Z" fill="white"/>
  <path d="M16 12C14.8954 12 14 12.8954 14 14C14 15.1046 14.8954 16 16 16C17.1046 16 18 15.1046 18 14C18 12.8954 17.1046 12 16 12Z" fill="white"/>
  <path d="M16 18C13.7909 18 12 19.7909 12 22C12 24.2091 13.7909 26 16 26C18.2091 26 20 24.2091 20 22C20 19.7909 18.2091 18 16 18Z" fill="white"/>
  <line x1="16" y1="10" x2="16" y2="12" stroke="white" stroke-width="2" stroke-linecap="round"/>
  <line x1="16" y1="16" x2="16" y2="18" stroke="white" stroke-width="2" stroke-linecap="round"/>
</svg>
